<svg xmlns="http://www.w3.org/2000/svg" width="94" height="47" viewBox="0 0 94 47" fill="none"><path fill-rule="evenodd" clip-rule="evenodd" d="M22.6792 9.15892C15.2122 9.15892 9.15892 15.2122 9.15892 22.6792C9.15892 30.1463 15.2122 36.1995 22.6792 36.1995C26.5915 36.1995 30.1156 34.5379 32.5844 31.8818H23.8984V24.1186L41.8297 24.1186L32.4414 13.3211L35.3485 10.7934L32.4269 13.3101C29.9669 10.7513 26.509 9.15892 22.6792 9.15892ZM37.4838 39.8603C33.511 43.2866 28.3371 45.3584 22.6792 45.3584C10.1538 45.3584 0 35.2046 0 22.6792C0 10.1538 10.1538 0 22.6792 0C29.2831 0 35.2277 2.82258 39.3725 7.32713L39.3691 7.33005L50.1039 19.6761L61.2807 32.4433L54.3893 38.4761L46.3642 29.309V46.5813H38.3828V39.0889L37.4879 39.8647L37.4838 39.8603ZM70.657 36.1995C78.1241 36.1995 84.1773 30.1463 84.1773 22.6792C84.1773 15.2122 78.1241 9.15892 70.657 9.15892C66.9412 9.15892 63.5755 10.6579 61.1316 13.0842L61.1144 13.0697L55.9019 19.518L49.657 12.4743L54.1002 7.17519L59.8917 12.0413L54.1055 7.17449C58.2435 2.7589 64.1281 0 70.657 0C83.1824 0 93.3362 10.1538 93.3362 22.6792C93.3362 35.2046 83.1824 45.3584 70.657 45.3584C64.3462 45.3584 58.6375 42.7809 54.5261 38.621C54.4802 38.5746 54.4345 38.528 54.389 38.4811L61.2941 32.433C61.342 32.479 61.3903 32.5247 61.4388 32.57C63.8617 34.8305 67.0919 36.1995 70.657 36.1995Z" fill="#00A987"></path></svg>
