<svg width="76" height="107" viewBox="0 0 76 107" fill="none" xmlns="http://www.w3.org/2000/svg">
  <path d="M52.1383 0C49.7094 0 47.592 5.19867 47.592 13.2177C44.4939 12.4936 41.1726 12.0895 37.6199 12.0895C34.0671 12.0895 30.7458 12.4936 27.6477 13.2177C27.6477 5.19867 25.5261 0 23.1015 0C13.6386 0 0 40.2381 0 47.832C0 55.4258 15.1709 77.5339 37.6157 77.5339C60.0604 77.5339 75.2313 55.4216 75.2313 47.832C75.2313 40.2423 61.5969 0 52.1383 0Z" fill="#FF953F"/>
  <path d="M51.9993 35.8809H51.41C50.2731 35.8809 49.3516 36.8024 49.3516 37.9393V39.9177C49.3516 41.0546 50.2731 41.9761 51.41 41.9761H51.9993C53.1361 41.9761 54.0577 41.0546 54.0577 39.9177V37.9393C54.0577 36.8024 53.1361 35.8809 51.9993 35.8809Z" fill="#130903"/>
  <path d="M23.8216 35.8809H23.2322C22.0954 35.8809 21.1738 36.8024 21.1738 37.9393V39.9177C21.1738 41.0546 22.0954 41.9761 23.2322 41.9761H23.8216C24.9584 41.9761 25.88 41.0546 25.88 39.9177V37.9393C25.88 36.8024 24.9584 35.8809 23.8216 35.8809Z" fill="#130903"/>
  <path d="M68.1041 68.8152L68.0873 68.8321C59.3274 77.4278 48.5091 82.1634 37.6193 82.1634C26.7294 82.1634 15.9069 77.4278 7.15125 68.8321L7.13442 68.8152C6.46932 68.167 5.34961 68.6342 5.34961 69.5645V72.5069C5.34961 75.3693 6.70926 78.076 9.03709 79.7429C13.1245 82.6727 17.4855 84.9627 22.0022 86.5707L22.0275 86.5328C23.5892 87.1053 25.1972 87.5978 26.8431 88.0061C27.1967 88.0903 27.5545 88.1787 27.9123 88.2545C28.1227 88.3008 28.3332 88.3429 28.5479 88.3892C27.0072 90.456 26.1569 93.0659 26.3337 95.882C26.6915 101.51 31.2756 106.09 36.9037 106.439C43.4788 106.848 48.9385 101.632 48.9385 95.1453C48.9385 92.6112 48.105 90.275 46.699 88.3892C47.0779 88.3092 47.461 88.225 47.8356 88.1366C48.004 88.0987 48.1681 88.0608 48.3365 88.0187C49.4099 87.7535 50.4623 87.4547 51.502 87.1221L51.5104 87.1432C56.646 85.5309 61.6089 83.0389 66.2225 79.7303C68.5461 78.0634 69.8973 75.3609 69.8973 72.5027V69.5561C69.8973 68.6258 68.7776 68.1543 68.1125 68.8068L68.1041 68.8152Z" fill="#974EF2"/>
  <path d="M35.4308 36.5329L33.9827 33.2706C33.124 31.3637 31.2087 30.1262 29.1082 30.1262H19.397C16.0294 30.1262 13.2891 27.3858 13.2891 24.0182V21.9682C13.2891 20.8654 14.1815 19.9688 15.2886 19.9688C16.3956 19.9688 17.288 20.8612 17.288 21.9682V24.0182C17.288 25.1843 18.2352 26.1314 19.4012 26.1314H29.1124C32.7746 26.1314 36.1127 28.2824 37.6239 31.6163C39.1435 28.2824 42.4774 26.1314 46.1354 26.1314H55.8466C57.0126 26.1314 57.9598 25.1843 57.9598 24.0182V21.9682C57.9598 20.8654 58.8522 19.9688 59.9592 19.9688C61.0663 19.9688 61.9587 20.8612 61.9587 21.9682V24.0182C61.9587 27.3858 59.2184 30.1262 55.8508 30.1262H46.1396C44.0391 30.1262 42.1238 31.3637 41.2609 33.279L39.817 36.5329H35.4434H35.4308Z" fill="#FFFAF6"/>
  <path d="M33.6374 34.5218L22.8401 60.33C21.6531 63.1714 23.7367 66.3074 26.8181 66.3074H48.4168C51.4981 66.3074 53.586 63.1714 52.3947 60.33L41.5974 34.5218C40.1199 30.9901 35.1191 30.9901 33.6416 34.5218H33.6374Z" fill="#FFFAF6"/>
  <path d="M35.9999 38.9336H31.7946L30.1782 42.1959C29.3195 44.1028 27.4042 45.3404 25.3037 45.3404H15.5925C12.2249 45.3404 9.21094 48.6869 9.21094 51.9871C9.21094 55.2873 11.9134 59.602 16.9858 64.5776C20.4754 68.0041 27.7957 73.7458 37.6205 73.7458C47.4454 73.7458 54.7656 67.9999 58.2552 64.5776C63.3276 59.5978 66.0301 55.2831 66.0301 51.9871C66.0301 48.6911 63.0161 45.3404 59.6486 45.3404H49.9374C47.8369 45.3404 45.9216 44.1028 45.0628 42.1959L43.4464 38.9336H39.2412H36.0083H35.9999Z" fill="#FFFAF6"/>
  <path d="M44.4467 93.037L37.2906 100.193C36.756 100.728 35.8847 100.728 35.3459 100.193L30.7155 95.5626C30.3787 95.2259 30.3787 94.6786 30.7155 94.3419L31.7889 93.2685C32.1256 92.9317 32.6729 92.9317 33.0096 93.2685L36.3224 96.5813L42.161 90.7428C42.4977 90.406 43.0449 90.406 43.3817 90.7428L44.4551 91.8162C44.7919 92.153 44.7919 92.7002 44.4551 93.037H44.4467Z" fill="#FFFAF6"/>
  <path d="M45.8074 53.4388C45.4706 53.4388 45.176 53.6577 45.0833 53.9819C44.9697 54.3818 44.7508 54.7438 44.4183 55.0216C41.6274 57.3452 38.4577 55.392 38.4577 52.7106V51.2583C38.4577 50.7995 38.6555 50.3617 39.0049 50.0629C40.373 48.8842 43.8331 45.8745 43.8331 45.8745C44.9739 44.881 44.2709 43.0078 42.7597 43.0078H32.4676C30.9564 43.0078 30.2535 44.881 31.3942 45.8745C31.3942 45.8745 34.8544 48.88 36.2225 50.0629C36.5718 50.3617 36.7697 50.7995 36.7697 51.2583V52.6012C36.7697 54.3186 35.5195 55.8424 33.8104 56.0361C32.2445 56.2129 30.8596 55.2994 30.3166 53.9608C30.1945 53.6535 29.9125 53.443 29.5799 53.443H29.5126C28.9275 53.443 28.536 54.0366 28.7549 54.5796C29.4958 56.4318 31.3058 57.7409 33.419 57.7409C35.1659 57.7409 36.7065 56.8443 37.6074 55.493C38.5082 56.8485 40.0488 57.7409 41.7958 57.7409C43.9636 57.7409 45.8074 56.3644 46.5146 54.4407C46.6914 53.9566 46.3167 53.443 45.799 53.443L45.8074 53.4388Z" fill="#130903"/>
</svg>
